<svg id="visual" viewBox="0 0 675 900" width="675" height="900" xmlns="http://www.w3.org/2000/svg" xmlns:xlink="http://www.w3.org/1999/xlink" version="1.1"><rect x="0" y="0" width="675" height="900" fill="#001220"></rect><defs><linearGradient id="grad1_0" x1="0%" y1="0%" x2="100%" y2="100%"><stop offset="30%" stop-color="#001220" stop-opacity="1"></stop><stop offset="70%" stop-color="#001220" stop-opacity="1"></stop></linearGradient></defs><defs><linearGradient id="grad2_0" x1="0%" y1="0%" x2="100%" y2="100%"><stop offset="30%" stop-color="#001220" stop-opacity="1"></stop><stop offset="70%" stop-color="#001220" stop-opacity="1"></stop></linearGradient></defs><g transform="translate(675, 0)"><path d="M0 506.3C-71.5 503.1 -142.9 500 -192.9 465.6C-242.8 431.3 -271.3 365.8 -318.9 318.9C-366.5 272 -433.3 243.8 -467.7 193.7C-502.1 143.7 -504.2 71.8 -506.2 0L0 0Z" fill="#715DF2"></path></g><g transform="translate(0, 900)"><path d="M0 -506.2C67.8 -493.9 135.5 -481.6 185.6 -448.1C235.7 -414.6 268.1 -360 317.5 -317.5C366.9 -275 433.4 -244.6 467.7 -193.7C502 -142.8 504.1 -71.4 506.3 0L0 0Z" fill="#715DF2"></path></g></svg>